<svg width="418" height="838" viewBox="0 0 418 838" fill="none" xmlns="http://www.w3.org/2000/svg">
<g id="markUp" filter="url(#filter0_d_194:69)">
<path id="Vector 8" d="M13.958 823.642C27.9361 823.642 42.0621 824.177 56.0291 823.512C71.6467 822.768 85.8758 816.702 101.226 814.655C123.301 811.711 149.007 813.615 169.999 806.058C187.719 799.679 205.742 799.949 223.532 792.121C237.284 786.07 251.404 780.986 264.822 774.277C293.299 760.038 330.997 747.766 346.88 718.269C351.245 710.162 357.483 704.006 363.161 696.908C370.499 687.736 371.027 674.249 373.842 663.303C381.483 633.587 385.302 601.874 386.606 571.216C389.054 513.703 386.737 455.552 386.737 397.982C386.737 329.447 389.081 261.043 389.081 192.445C389.081 150.418 389.081 108.39 389.081 66.3624" stroke="#1D1C3F" stroke-width="3" stroke-linecap="round"/>
<path id="Vector 9" d="M369.422 63C374.825 61.8708 380.31 62.4787 385.709 61.3726C389.604 60.5744 393.701 60.0955 397.421 58.6282C399.161 57.9417 402.515 57.1334 403.815 55.6925C404.179 55.2892 403.894 53.2862 403.894 52.8046C403.894 51.0464 403.238 49.3493 402.802 47.6669C401.451 42.4515 400.213 37.1896 398.402 32.1105C396.353 26.3622 393.677 20.9358 391.422 15.2936C391.417 15.2813 390.776 13.8268 390.568 14.0172C389.884 14.6407 389.043 16.6197 388.684 17.2561C387.28 19.7425 385.916 22.2518 384.458 24.7072C381.086 30.3895 377.745 35.897 375.025 41.939C372.87 46.7269 370.859 51.5921 368.283 56.1711C367.676 57.2505 366.306 60.1456 367.428 61.2768" stroke="#1D1C3F" stroke-width="3" stroke-linecap="round"/>
<path id="Vector 10" d="M380.298 48.8271C382.143 41.5744 383.938 34.3071 385.818 27.0631C386.494 24.459 385.909 27.3956 385.778 27.8962C385.038 30.7244 384.095 33.5076 383.204 36.292C382.606 38.1597 382.145 40.0549 381.618 41.9413C381.539 42.2247 381.02 44.0443 381.254 42.7874C381.448 41.7428 381.941 40.7919 382.269 39.787C382.804 38.1446 383.397 36.6204 384.319 35.1335C384.728 34.4731 385.285 33.688 385.891 33.168C386.041 33.039 386.029 33.545 386.024 33.7407C385.982 35.4313 385.615 37.0085 384.995 38.5894C383.523 42.3475 381.53 46.1305 379.409 49.5691C378.756 50.6277 378.061 51.6883 377.226 52.6215C376.817 53.0799 376.696 52.9979 376.755 52.3937C376.914 50.7826 377.579 49.3478 378.175 47.8639C378.88 46.1084 379.523 44.3388 380.637 42.7809C381.155 42.0558 381.749 41.3949 382.328 40.7177C382.651 40.3411 382.954 39.8464 383.35 39.5332C383.663 39.2861 383.507 40.229 383.503 40.2816C383.189 44.1806 382.079 48.0201 381.546 51.8991C381.472 52.4346 381.555 53.1659 382.229 52.5044C382.669 52.0722 382.991 51.4916 383.31 50.9749C384.105 49.6878 384.864 48.3753 385.553 47.0308C387.114 43.9846 388.583 40.8913 390.137 37.841C391.355 35.4517 392.719 33.0821 393.713 30.5906C393.795 30.3859 394.181 29.0636 394.131 29.2499C393.584 31.309 392.743 33.3273 391.988 35.3157C390.511 39.2091 388.741 43.2547 388.439 47.4474C388.436 47.4866 388.294 48.2909 388.605 48.0266C389.569 47.2069 390.231 45.7341 390.801 44.6683C392.62 41.2618 394.388 37.6232 395.465 33.9099C395.689 33.1364 395.9 32.3429 396.029 31.5474C396.067 31.3107 396.062 31.3057 396.062 31.1178C396.062 30.9941 396.065 31.0508 396.029 31.2415C394.815 37.5543 391.554 43.4897 391.285 49.9856C391.28 50.1142 391.088 52.1357 391.67 51.7624C392.086 51.4956 392.438 50.8971 392.692 50.5193C393.594 49.1737 394.381 47.7496 395.014 46.2628C396.284 43.2771 397.303 40.035 397.873 36.8452C398.056 35.8216 397.863 36.4349 397.694 36.9949C397.322 38.2257 396.897 39.4396 396.553 40.6786C395.943 42.8761 395.313 45.0758 394.775 47.2912C394.602 48.0029 394.447 48.7141 394.344 49.4389C394.303 49.723 394.026 50.6912 394.191 50.9749C394.355 51.2573 394.694 50.5406 394.881 50.272C395.486 49.403 396.029 48.4774 396.513 47.5385C397.027 46.5418 397.263 45.5282 397.654 44.5056C398.187 43.1131 397.009 47.4125 396.632 48.8532C396.07 51.0058 395.756 53.174 395.551 55.3876C395.427 56.7278 396.052 55.5258 396.301 55.0101C396.902 53.763 397.561 52.364 397.827 51.0009C397.958 50.3269 398.054 49.5366 397.966 48.8467C397.935 48.6034 396.391 50.3264 396.248 50.4933C393.948 53.1761 390.467 55.5041 386.827 55.8041C385.158 55.9417 383.369 55.8688 381.891 55.0101C381.764 54.9368 381.185 54.2775 381.638 54.2161C382.295 54.1273 383.029 54.2643 383.675 54.3332C384.996 54.474 386.335 54.484 387.663 54.4439C387.816 54.4393 389.261 54.1765 389.109 54.125C388.798 54.0193 388.136 54.0989 387.862 54.0989C386.729 54.0989 385.597 54.0989 384.465 54.0989C382.046 54.0989 379.762 54.4705 377.392 54.932C376.927 55.0226 375.636 55.4104 376.099 55.5113C377.747 55.8706 379.517 55.7757 381.187 55.661C384.394 55.4406 387.522 54.7097 390.668 54.1054C391.557 53.9347 392.523 53.5132 393.435 53.5132C393.935 53.5132 392.434 53.5294 391.935 53.5653C389.124 53.7675 386.31 54.2282 383.543 54.7433C382.831 54.8757 381.762 54.9686 381.094 55.3355C380.917 55.4328 382.201 55.5046 382.236 55.5048C384.818 55.5194 387.396 55.4534 389.971 55.2574C391.642 55.1303 393.303 54.9451 394.961 54.7042C395.28 54.6578 395.65 54.5675 395.982 54.5675C399.716 54.5675 388.513 54.7121 384.79 54.9841C384.666 54.9931 383.013 55.2539 383.974 55.2704C384.341 55.2768 384.708 55.2704 385.075 55.2704" stroke="#1D1C3F" stroke-width="2" stroke-linecap="round"/>
<path id="Vector 11" d="M386.799 23.1917C387.021 24.1838 387.247 25.1415 387.556 26.1173C387.918 27.2602 388.478 28.9038 388.902 30.0371C389.031 30.3818 389.166 30.725 389.318 31.0596C389.357 31.1431 389.384 31.2693 389.473 31.2869C389.473 31.2869 389.491 30.2072 389.491 30.1602C389.491 29.5775 389.52 28.9854 389.477 28.4038C389.396 27.2961 389.097 26.2144 388.87 25.1326C388.792 24.7649 388.579 23.9576 388.566 24.8013C388.545 26.1952 388.624 27.7131 389.024 29.0524C389.117 29.3629 389.658 30.8988 390.249 30.5768C390.525 30.4262 390.732 30.0305 390.88 29.772C391.358 28.9335 391.604 27.9727 391.773 27.0262C392.04 25.5305 391.968 23.927 391.927 22.4106C391.922 22.229 391.87 21.0709 391.553 21.0709C391.092 21.0709 391.011 23.343 391.006 23.6367C390.984 24.8602 390.828 26.3984 391.679 27.3955C392.125 27.9177 392.48 27.6451 392.82 27.1683C393.404 26.3496 393.488 25.3433 393.61 24.3705C393.737 23.3609 393.808 21.971 393.231 21.0803C392.967 20.6721 392.596 21.9474 392.563 22.0555C392.259 23.0603 392.184 24.022 392.184 25.0664C392.184 25.2557 392.184 25.8238 392.184 25.6344C392.184 25.4137 392.189 25.1923 392.184 24.9717C392.174 24.5462 392 24.1636 391.544 24.1338C390.669 24.0766 389.793 25.2165 389.323 25.8285C388.213 27.2763 387.401 29.0281 387.116 30.8419C386.958 31.8507 386.936 32.8644 387.902 33.4456C388.655 33.8988 389.954 33.7273 390.698 33.3556C391.207 33.101 392.004 32.5949 392.016 31.9307C392.038 30.7665 389.132 31.4268 388.584 31.5898C387.374 31.9504 386.178 32.5846 385.073 33.1899C384.021 33.7668 382.912 34.4084 382.025 35.235C381.705 35.5335 381.42 36.1653 382.049 36.2102C383.218 36.2938 384.516 35.7969 385.602 35.4149C386.1 35.2395 386.994 34.8455 387.332 34.4066C387.382 34.3414 387.29 34.3533 387.252 34.3592C386.839 34.4236 386.291 34.895 385.976 35.1025C385.478 35.4297 382.532 37.2213 383.9 38.1039C384.6 38.5551 385.558 38.6417 386.359 38.7193C387.956 38.8738 389.582 38.9193 391.184 38.8424C392.528 38.7778 393.893 38.6351 395.209 38.3406C395.377 38.3029 395.592 38.2587 395.279 38.2459C394.27 38.2044 393.22 38.3311 392.222 38.4352C390.021 38.6647 387.84 39.0409 385.649 39.3442C383.788 39.6017 381.923 39.8159 380.085 40.2152C379.793 40.2788 376.57 40.833 376.719 41.5123C376.775 41.7692 377.312 41.8625 377.481 41.9053C378.755 42.2277 380.086 42.3599 381.39 42.4828C386.079 42.9249 390.806 43.0462 395.513 43.0462C395.528 43.0462 396.98 42.9761 397 43.084C397.024 43.2164 395.897 43.2163 395.878 43.2166C393.536 43.2479 391.169 43.211 388.832 43.3539C388.219 43.3914 387.599 43.4542 387.009 43.6379C386.345 43.8449 387.371 44.033 387.565 44.0877C390.411 44.8882 393.377 45.0878 396.256 45.7162C397.363 45.9576 396.474 46.0373 395.962 46.0759C390.91 46.4569 385.798 46.4182 380.786 47.231C380.715 47.2427 379.793 47.391 379.59 47.5151C379.481 47.581 379.678 47.789 379.795 47.837C380.888 48.2853 382.209 48.3693 383.367 48.4808C386.988 48.8297 390.626 48.8406 394.26 48.8406C394.456 48.8406 394.653 48.8295 394.849 48.8453C394.893 48.8489 394.775 48.8956 394.732 48.9069C393.754 49.1675 392.761 49.3273 391.754 49.4229C389.668 49.621 387.569 49.652 385.48 49.8158C382.206 50.0726 378.914 50.4326 375.672 50.9709C375.134 51.0603 374.402 51.1344 373.933 51.4633C373.61 51.6895 374.337 51.8854 374.442 51.9225C375.337 52.2375 376.262 52.4211 377.201 52.5426C379.99 52.9039 382.815 53.0288 385.62 53.1864C387.326 53.2823 389.031 53.38 390.735 53.5084C391.291 53.5503 391.97 53.5182 392.512 53.6977C392.713 53.7645 392.512 53.8502 392.418 53.8681C391.341 54.0726 390.196 54.0977 389.108 54.2137C385.824 54.5638 382.513 54.6083 379.216 54.7108C376.876 54.7835 375.837 54.8114 373.713 54.8718C372.892 54.8951 372.861 54.8704 373.213 54.9049C377.541 55.3291 381.85 55.8116 386.2 55.9606C388.207 56.0293 390.197 56.1252 392.194 56.3488C392.329 56.3639 393.183 56.4656 393.447 56.5097C393.515 56.5211 393.635 56.5066 393.643 56.576C393.654 56.6797 393.437 56.5949 393.334 56.5949C391.414 56.5949 389.495 56.5949 387.575 56.5949C383.448 56.5949 379.322 56.5949 375.195 56.5949C374.896 56.5949 374.002 56.5681 374.297 56.6139C376.296 56.9231 378.32 57.124 380.324 57.3997C383.919 57.8944 387.524 58.3533 391.104 58.9477C392.132 59.1184 393.145 59.3236 394.148 59.6058C394.377 59.6701 394.523 59.7478 394.185 59.8283C392.825 60.1524 391.184 59.9182 389.809 59.9182C384.843 59.9182 369.944 59.998 374.91 59.9135C378.209 59.8573 381.507 59.833 384.807 59.833C385.734 59.833 386.661 59.833 387.589 59.833C388.014 59.833 386.738 59.8379 386.312 59.833C384.335 59.8101 382.219 59.7638 380.352 59.0282C379.818 58.8182 380.019 58.6917 380.403 58.4696" stroke="#1D1C3F" stroke-width="2" stroke-linecap="round"/>
<path id="Vector 12" d="M395 48C395.563 49.2835 396.278 50.5389 397.001 51.726C397.375 52.3387 397.913 53.308 398.509 53.7126C399.453 54.3544 399.147 52.0264 399.073 51.6024C398.958 50.9413 398.805 50.2967 398.667 49.6444C398.597 49.3089 398.821 50.6854 398.844 50.785C399.113 51.9769 399.496 53.3045 400.633 53.8552C401.332 54.1934 401.835 53.6823 401.947 52.9427C402.101 51.9172 401.934 50.3893 401.25 49.5969C401.031 49.3426 400.497 49.0783 400.175 49.2547C399.675 49.5288 399.522 50.6401 399.522 51.1652C399.522 51.9929 399.565 53.2653 400.201 53.8457C400.726 54.3244 400.977 53.5768 400.695 53.1328C400.459 52.7605 399.958 52.6841 399.602 52.8761" stroke="#1D1C3F" stroke-width="2" stroke-linecap="round"/>
<path id="Vector 13" d="M368 56C370.329 56.0266 372.557 56.5892 374.798 57.2353C375.421 57.415 374.774 57.4838 374.472 57.5784C372.917 58.0658 371.301 58.3339 369.718 58.6961C369.619 58.7187 368.855 58.7764 368.795 58.8922C368.735 59.0094 369.042 58.911 369.166 58.9118C369.552 58.9141 369.938 58.9104 370.323 58.9118C371.993 58.9179 373.661 59 375.331 59C375.853 59 377.416 59 376.895 59C376.478 59 376.188 58.836 375.81 58.6471" stroke="#1D1C3F" stroke-width="2" stroke-linecap="round"/>
</g>
<defs>
<filter id="filter0_d_194:69" x="0.458008" y="0.5" width="417.042" height="836.845" filterUnits="userSpaceOnUse" color-interpolation-filters="sRGB">
<feFlood flood-opacity="0" result="BackgroundImageFix"/>
<feColorMatrix in="SourceAlpha" type="matrix" values="0 0 0 0 0 0 0 0 0 0 0 0 0 0 0 0 0 0 127 0" result="hardAlpha"/>
<feOffset/>
<feGaussianBlur stdDeviation="6"/>
<feComposite in2="hardAlpha" operator="out"/>
<feColorMatrix type="matrix" values="0 0 0 0 0.113725 0 0 0 0 0.109804 0 0 0 0 0.247059 0 0 0 0.3 0"/>
<feBlend mode="normal" in2="BackgroundImageFix" result="effect1_dropShadow_194:69"/>
<feBlend mode="normal" in="SourceGraphic" in2="effect1_dropShadow_194:69" result="shape"/>
</filter>
</defs>
</svg>
