<svg width="94" height="26" viewBox="0 0 94 26" fill="none" xmlns="http://www.w3.org/2000/svg">
<path d="M92.5385 18.8945C92.5385 18.8945 59.1079 19.2253 42.1692 20.4142C25.1731 21.6071 1 25.0003 1 25.0003" stroke="#65D465" stroke-width="2"/>
<path d="M83.2365 16.9712C84.7905 16.9712 86.1181 16.3536 87.2169 15.2542C88.3157 14.1548 88.933 12.6637 88.933 11.1089C88.933 9.55417 88.3157 8.06307 87.2169 6.96368C86.1181 5.86429 84.5735 5.19238 83.0195 5.19238L83.0738 7.77818C83.9567 7.77818 84.8034 8.12909 85.4278 8.75373C86.0521 9.37837 86.4028 10.2256 86.4028 11.1089C86.4028 11.9923 86.0521 12.8395 85.4278 13.4641C84.8034 14.0888 84.0652 14.4201 83.1823 14.4201L83.2365 16.9712Z" fill="#65D465"/>
<path d="M32.4902 5.2022H35.3287V6.77121H35.513C35.8032 6.21758 36.2557 5.75981 36.8706 5.39789C37.4863 5.03589 38.1889 4.84846 38.9031 4.85571C39.405 4.85025 39.9037 4.93628 40.3749 5.10962V8.13261C40.0309 8.00167 39.6799 7.88997 39.3236 7.79805C39.0251 7.7271 38.7192 7.69225 38.4125 7.69424C37.521 7.69424 36.8138 8.01735 36.291 8.66357C35.7681 9.30978 35.5069 10.125 35.5074 11.1093V16.9709H32.4902V5.2022Z" fill="#353457"/>
<path d="M42.3931 3.32535C42.2076 3.14622 42.0607 2.93085 41.9615 2.69256C41.8624 2.45427 41.8131 2.19814 41.8167 1.93999C41.8125 1.68343 41.8615 1.42879 41.9608 1.19223C42.06 0.95568 42.2072 0.74238 42.3931 0.565869C42.5737 0.383137 42.7892 0.238842 43.0268 0.14164C43.2644 0.0444384 43.5192 -0.00366557 43.7758 0.000217701C44.0302 -0.000711077 44.2823 0.0488379 44.5175 0.146009C44.7527 0.24318 44.9664 0.38605 45.1463 0.566378C45.3261 0.746707 45.4686 0.960928 45.5654 1.19668C45.6622 1.43244 45.7115 1.68507 45.7104 1.93999C45.7148 2.19681 45.6674 2.45187 45.5711 2.68991C45.4749 2.92795 45.3316 3.14408 45.15 3.32535C44.9732 3.51131 44.7597 3.65838 44.5232 3.75721C44.2866 3.85604 44.032 3.90447 43.7758 3.89942C43.5184 3.90336 43.2629 3.85445 43.0252 3.75572C42.7874 3.65699 42.5723 3.51053 42.3931 3.32535ZM42.253 5.19564H45.2719V16.9712H42.253V5.19564Z" fill="#353457"/>
<path d="M51.814 16.3922L46.8652 5.19238H50.2936L53.3323 12.4976H53.5163L56.4395 5.19238H59.7979L52.5466 21.9232H49.3008L51.814 16.3922Z" fill="#353457"/>
<path d="M61.1414 16.2114C60.3413 15.4811 59.9415 14.5232 59.942 13.3378C59.9287 12.5981 60.1463 11.8727 60.5645 11.2624C60.9936 10.6514 61.5848 10.1722 62.2715 9.87887C63.0276 9.54955 63.845 9.38471 64.6697 9.39525C65.8848 9.39525 66.9227 9.57188 67.7836 9.92513V9.41978C67.7836 8.77403 67.5413 8.2514 67.0566 7.85189C66.572 7.45238 65.9224 7.25263 65.1078 7.25263C64.5513 7.25334 64.0026 7.38364 63.5053 7.63321C63.0107 7.87054 62.5739 8.21281 62.2252 8.63619L60.2876 7.11385C60.8528 6.37887 61.5893 5.79321 62.4327 5.40788C63.3151 5.00348 64.2759 4.79863 65.2466 4.80792C67.0454 4.80792 68.4138 5.22308 69.3518 6.0534C70.2897 6.88372 70.7587 8.0986 70.7587 9.69804V16.9389H67.7836V15.7397H67.5992C67.2257 16.2173 66.7484 16.6037 66.2035 16.8696C65.6273 17.1621 64.9622 17.3081 64.2084 17.3076C62.9634 17.3067 61.9411 16.9413 61.1414 16.2114ZM67.0111 14.1129C67.514 13.5805 67.7904 12.8736 67.7822 12.1413C67.011 11.775 66.1677 11.5858 65.3139 11.5876C63.7455 11.5876 62.9615 12.1717 62.962 13.3399C62.955 13.5594 62.9968 13.7778 63.0845 13.9793C63.1721 14.1807 63.3034 14.3602 63.4688 14.5048C63.8072 14.8047 64.2916 14.9545 64.922 14.954C65.7992 14.9559 66.4956 14.6765 67.0111 14.1158V14.1129Z" fill="#353457"/>
<path d="M72.5859 14.5002L78.7004 7.75679H72.7697V5.19238H82.4015V7.66342L76.287 14.4075H82.5859V16.9712H72.5859V14.5002Z" fill="#353457"/>
<path d="M6.64891 16.8506C6.19869 16.7008 5.78774 16.4529 5.44603 16.125C4.72008 15.4341 4.35733 14.4519 4.3578 13.1784V7.76882H2.29883V5.19032H4.35851V1.875H7.39034V5.19032H10.2836V7.76882H7.39034V12.6263C7.39034 13.2248 7.52142 13.6545 7.78357 13.9153C7.99976 14.1611 8.37024 14.2838 8.895 14.2833C9.14301 14.2909 9.39024 14.252 9.62377 14.1686C9.88389 14.057 10.1353 13.9263 10.3758 13.7774V16.724C9.70497 16.9859 8.99025 17.1186 8.26965 17.1151C7.71808 17.121 7.16969 17.0315 6.64891 16.8506V16.8506Z" fill="#353457"/>
<path d="M19.4753 6.10221C18.715 5.24771 17.6208 4.82046 16.1926 4.82046C15.4632 4.81521 14.7436 4.98973 14.0972 5.32866C13.4518 5.66747 12.9603 6.1139 12.6229 6.66797H12.4387L12.6229 4.61268V0.432617H9.60547V4.55863H10.8971V8.40879H9.60547V13.5042C9.72868 13.441 9.87174 13.3605 10.0346 13.2627L10.9902 12.6892V16.9711H12.6243V10.9898C12.6243 10.0506 12.881 9.25767 13.3944 8.61095C13.9078 7.96422 14.5642 7.64086 15.3637 7.64086C16.0391 7.64086 16.5805 7.84887 16.9879 8.26489C17.3954 8.68091 17.5986 9.26586 17.5977 10.0197V16.969H20.6151V9.64982C20.6151 8.13924 20.2352 6.9567 19.4753 6.10221Z" fill="#353457"/>
<path d="M30.9042 10.7585C30.9042 9.65098 30.6774 8.64393 30.2239 7.73735C29.7818 6.84324 29.0879 6.0977 28.2276 5.5924C27.3508 5.07041 26.3045 4.80895 25.0887 4.80802C23.9981 4.79515 22.9261 5.09116 21.9968 5.66179C21.5017 5.96433 21.0528 6.33663 20.6641 6.76722C21.047 7.56982 21.2413 8.52663 21.2413 9.62855V15.9526C21.4928 16.1564 21.7602 16.3397 22.041 16.5008C22.9828 17.0387 24.0382 17.3076 25.2072 17.3076C27.6533 17.3076 29.4771 16.2622 30.6784 14.1715L28.2325 12.9722C27.9478 13.4718 27.5381 13.8889 27.0436 14.1827C26.5432 14.4827 25.9472 14.6327 25.2556 14.6327C24.4247 14.6327 23.7129 14.3907 23.1205 13.9065C22.528 13.4224 22.1551 12.7112 22.0017 11.7728H30.8397C30.8853 11.4367 30.9068 11.0977 30.9042 10.7585V10.7585ZM22.135 9.63065C22.3655 8.90773 22.7396 8.33504 23.2573 7.91259C23.7749 7.49014 24.394 7.27868 25.1146 7.27822C25.6837 7.27822 26.1799 7.39738 26.6031 7.63571C26.9998 7.8514 27.339 8.1591 27.5921 8.53295C27.8181 8.85857 27.9574 9.23634 27.9968 9.63065H22.135Z" fill="#353457"/>
</svg>
