<svg id="patternSvg" width="1920" height="1826" viewBox="0 0 1920 1826" fill="none" xmlns="http://www.w3.org/2000/svg">
<g id="backPattern" clip-path="url(#clip0_158:455)">
<path id="lines" d="M631.96 272.316C630.178 353.676 644.002 427.655 663.63 505.856C693.966 626.718 728.157 728.537 832.429 776.124C909.69 811.383 1011.32 820.308 1093.3 809.259C1107.94 807.285 1119.79 805.322 1124.32 788.1C1127.82 774.773 1110.94 772.528 1104.07 775.325C1046.13 798.941 977.616 911.538 960.416 980.521C905.484 1200.83 1113.85 1349.15 1265.36 1265.56C1343.63 1222.38 1425.7 1131.03 1416.86 1015.65C1408.44 905.806 1275.8 884.761 1211.82 873.532C1103.97 854.606 1023.67 847.013 929.072 917.845C897.456 941.519 792.897 1018.57 834.062 1082.32C864.183 1128.97 953.122 1120.66 995.024 1118.65C1061.72 1115.45 1143.2 1074.53 1153.7 982.917C1162.47 906.43 1024.11 878.795 987.188 868.742C859.89 834.078 705.755 830.153 581.68 887.105C556.649 898.595 390.12 996.721 472.63 1046.79C514.722 1072.33 577.122 1070.16 620.859 1070.34C808.521 1071.14 998.243 1045.76 1180.47 990.502C1184.72 989.213 1423.22 926.3 1381.92 853.172C1337.35 774.236 1204.38 768.167 1137.05 761.752C989.303 747.675 840.498 746.582 692.362 746.582C649.645 746.582 743.207 735.059 750.479 732.21C782.955 719.488 909.144 667.763 905.238 608.055C902.024 558.938 712.972 575.133 695.953 575.319C599.273 576.375 486.6 575.846 396.556 626.818C373.656 639.781 381.728 649.464 399.495 654.763C421.056 661.193 456.325 660.557 466.1 689.894C486.045 749.752 487.545 820.551 503.974 882.315C526.239 966.017 569.567 1056.45 633.266 1101.88C683.235 1137.52 803.811 1194.44 851.692 1123.04C889.102 1067.26 898.413 952.637 888.913 883.912C881.477 830.115 837.756 766.082 796.514 746.981C621.673 666.003 717.633 1180.9 761.906 1251.19C834.171 1365.92 976.584 1402.48 1087.75 1395.7C1224.18 1387.38 1324.28 1286.1 1392.7 1145C1437.28 1053.06 1474.8 895.31 1373.11 836.006C1263.98 772.369 1108.11 811.674 998.942 852.773C989.036 856.502 821.427 925.798 832.429 950.181C846.479 981.319 918.362 922.808 925.807 915.849C953.415 890.045 1049.48 795.703 1015.92 739.396C989.252 694.656 914.376 709.208 884.016 735.803C779.593 827.276 910.256 963.326 993.718 975.332C1005.3 976.998 1066.63 981.025 1038.12 950.98C1020.06 931.944 993.262 923.717 970.864 917.446C888.069 894.262 802.649 889.009 718.155 883.113C647.314 878.17 550.372 888.392 502.668 808.061C466.957 747.926 479.063 654.585 489.608 586.896C498.171 531.926 497.247 553.859 494.179 598.873C486.715 708.393 470.056 825.082 516.707 925.829C564.105 1028.19 647.363 1082.81 741.337 1090.31C778.91 1093.3 875.311 1081.29 851.692 1003.68C813.804 879.172 641.057 882.18 557.193 885.109C507.907 886.831 445.499 885.667 402.76 923.035C353.279 966.297 356.565 1036.02 404.066 1079.53C460.002 1130.76 535.705 1148.77 602.902 1160.17C703.639 1177.26 807.36 1179.55 908.829 1181.73C1034.14 1184.42 1160.83 1185.38 1285.61 1168.55C1326.74 1163 1391.32 1157.26 1423.39 1115.46C1443.61 1089.1 1444.43 1030.88 1413.59 1015.65C1386.56 1002.3 1379.63 1023.01 1407.06 1040.8C1515.71 1111.29 1758.38 1019.29 1740.74 836.804C1727.39 698.706 1601.47 645.004 1503.38 640.391C1473.25 638.974 1315.6 649.509 1339.8 734.606C1362.92 815.865 1473.16 835.394 1531.78 838.401C1611.22 842.477 1713.65 841.376 1770.78 760.954C1827.36 681.312 1731.07 651.897 1682.63 650.771C1619.67 649.307 1524.2 681.771 1497.18 762.551C1477.36 821.781 1523.57 863.485 1562.47 884.71C1588.68 899.005 1674.41 910.182 1645.73 911.457C1418.52 921.56 1192.49 956.808 969.231 1009.66C852.946 1037.19 736.897 1070.84 624.124 1115.46C583.417 1131.56 523.479 1152.36 488.628 1188.51C482.543 1194.83 504.778 1193.94 512.463 1191.31C557.417 1175.89 601.729 1155.39 645.02 1134.22C683.904 1115.2 720.12 1093.73 756.682 1069.15C771.5 1059.18 777.91 1054.34 788.026 1073.14C825.158 1142.15 859.669 1208.73 914.706 1259.97C959.266 1301.46 1010.33 1334.26 1059.67 1366.16C1086.51 1383.52 1110.59 1397.92 1138.03 1412.47C1144.67 1415.99 1163.14 1415.51 1158.27 1422.05C1156.33 1424.66 1152.61 1423.37 1149.78 1424.05C1120.01 1431.19 1109.99 1433.4 1075.67 1444.01C1007.57 1465.06 938.929 1488.88 875.527 1526.65C851.201 1541.14 783.577 1583.42 805.003 1633.64C818.316 1664.83 859.797 1668.09 882.709 1670.76C961.249 1679.91 1041.89 1671.42 1119.75 1658.39C1202.55 1644.52 1284.34 1622.06 1365.27 1596.91C1383.68 1591.19 1417.59 1580.84 1438.41 1571.36C1439.38 1570.91 1450.54 1568.27 1447.22 1562.18C1441.36 1551.42 1408.23 1557.38 1404.45 1557.79C1351.13 1563.55 1298.25 1575.83 1245.45 1586.13C1231.09 1588.93 1171.71 1609.37 1153.05 1598.5C1139.39 1590.55 1143.68 1525.43 1143.58 1518.26C1141.71 1380.95 1147.05 1240.99 1113.87 1107.87C1101.7 1059.07 1078.56 980.887 1034.86 958.166C956.799 917.58 849.477 1041.43 809.574 1105.08C683.554 1306.08 692.108 1621.33 745.581 1853.2C844.297 2281.27 1082.96 2670.13 1326.09 2991.76C1396.49 3084.89 1473.1 3173.92 1554.97 3252.05C1571.23 3267.57 1625.37 3300.1 1604.92 3296.76C1573 3291.56 1536.45 3272.94 1505.34 3266.02C1256.53 3210.71 1003.12 3186.06 752.111 3151.05C505.622 3116.66 188.071 3101.11 -10.2579 2886.77C-103.363 2786.15 -39.5274 2634.12 22.0653 2533.07C77.3843 2442.3 153.878 2372.6 231.676 2313.1C376.069 2202.66 532.116 2116.61 685.832 2028.06C767.273 1981.14 1009.19 1856.32 919.277 1861.99C837.953 1867.11 754.349 1905.62 679.302 1939.03C572.272 1986.69 466.101 2041.45 366.192 2108.7C338.725 2127.19 310.034 2148.48 288.16 2176.57C284.759 2180.93 291.386 2165.12 293.71 2159.8C370.959 1983.08 467.289 1824 494.832 1620.06C511.944 1493.36 509.234 1342.44 440.634 1236.82C365.843 1121.66 223.329 1112.06 122.626 1177.73C-53.0459 1292.29 -23.2332 1566.93 69.7338 1740.23C125.036 1843.31 206.455 1918.95 297.628 1970.57C480.178 2073.94 683.008 2121.28 883.036 2129.86C1124.72 2140.23 1407.69 2105.49 1538.97 1806.89C1584.74 1702.79 1604.74 1580.86 1608.84 1462.77C1618.35 1188.88 1555.4 1004.16 1412.94 800.875C1279.34 610.241 1078.53 515.05 884.668 459.148C672.029 397.832 425.399 358.22 207.515 400.863C136.723 414.718 72.6325 448.606 34.1456 525.018C-15.7712 624.124 -4.87445 737.373 25.3302 843.99C143.681 1261.75 426.614 1558.37 741.01 1751C1299.14 2092.98 1911.9 2226.4 2532.82 2211.7C2647.27 2208.99 2785.88 2207.02 2894.91 2151.42C2932.8 2132.09 2995.52 2088.89 2986.65 2024.07C2975.15 1940.03 2878.45 1899.74 2825.69 1882.75C2652.38 1826.92 2465.08 1823.87 2287.3 1816.48C1867.58 1799.03 1446.38 1830.39 1027.02 1803.7C922.202 1797.03 817.73 1779.98 717.176 1742.22C647.925 1716.22 578.856 1682.6 532.706 1610.48C473.75 1518.35 455.048 1388.86 440.96 1275.94C438.101 1253.02 418.781 1212.6 431.818 1251.99C455.932 1324.83 541.696 1364.88 595.393 1390.51C671.51 1426.85 751.668 1454.32 832.429 1469.96C834.132 1470.29 1049.02 1512.72 1017.55 1443.21C999.135 1402.53 965.271 1375.06 934.949 1347C822.693 1243.12 695.315 1165.18 583.639 1060.36C529.187 1009.26 490.982 968.939 577.109 974.134C599.811 975.503 727.993 1008.7 754.723 1016.45C840.862 1041.44 981.129 1085.3 1019.84 1200.09C1066.26 1337.74 777.186 1389.66 720.114 1399.7C681.609 1406.46 504.706 1454.52 491.567 1366.16C485.558 1325.75 519.756 1279.46 537.929 1253.98C616.475 1143.89 716.062 1059.7 810.227 971.339C845.819 937.942 957.264 862.438 953.559 787.701C951.298 742.075 903.066 804.86 897.075 814.049C844.257 895.07 769.96 1075.3 837.653 1170.55C902.119 1261.26 1034.24 1281.61 1124.32 1286.32C1262.66 1293.56 1405.27 1248.16 1525.25 1164.16C1590.01 1118.82 1733.01 956.654 1623.2 875.129C1483.71 771.561 1291.98 744.72 1135.42 731.013C820.574 703.447 495.996 727.545 184.007 783.31C-100.51 834.165 -370.537 936.523 -636.804 1066.75C-829.16 1160.83 -1052.04 1262.6 -1199.03 1452.39C-1271.89 1546.47 -1359.7 1718.08 -1304.82 1853.2C-1257.37 1970.02 -1151.73 2019.95 -1059.62 2060.4C-877.094 2140.55 -717.714 2166.85 -522.857 2190.54C-130.079 2238.28 267.834 2233.43 661.998 2232.46C971.885 2231.7 1286.06 2236.44 1595.12 2201.72C1644.98 2196.12 1694.79 2188.62 1744.01 2177.37C1745.24 2177.08 1869.95 2142.04 1883.09 2116.69C1888.45 2106.35 1871.47 2094.2 1861.87 2090.74C1757.99 2053.18 1646.53 2059.39 1540.27 2033.65C1428.66 2006.61 1316.68 1979.41 1207.9 1938.64C1096.78 1896.99 743.163 1755.51 645.02 1604.09C527.722 1423.13 935.133 1396.85 972.496 1392.11C1000.43 1388.57 1028.41 1385.57 1056.41 1382.93C1087.81 1379.97 1082.85 1381.92 1058.36 1387.72C895.334 1426.3 732.254 1455.17 566.661 1472.35C396.057 1490.05 216.282 1516.86 44.5935 1505.49C-2.58748 1502.36 -11.5363 1481.36 13.5763 1434.83C55.9994 1356.22 137.382 1296.03 197.067 1243.6C335.76 1121.78 477.715 1005.61 616.942 884.71C690.829 820.548 765.866 756.267 832.756 681.111C842.559 670.096 852.496 659.138 861.161 646.778C863.109 643.999 867.061 635.862 864.099 636.399C856.392 637.795 849.778 644.28 843.53 649.972C776.04 711.458 719.794 792.124 670.487 874.73C617.487 963.522 564.731 1062.29 578.741 1176.93C620.239 1516.5 992.229 1632 1219 1683.14C1404.14 1724.89 1596.98 1739.41 1784.49 1713.48C1864.14 1702.47 1990.19 1682.9 2053.53 1609.28C2106.56 1547.65 2026.08 1469.35 1995.08 1426.04C1950.25 1363.4 1920.54 1276.8 1897.13 1199.29C1896.93 1198.61 1881.04 1129.96 1875.26 1152.18C1863.44 1197.59 1869.83 1273.75 1885.05 1315.46C1940.56 1467.53 2095.98 1579.81 2211.55 1653.2C2232.99 1666.81 2298.47 1714.88 2329.09 1699.91C2342.61 1693.29 2333.36 1657.63 2331.7 1652.8C2316.4 1608.35 2277.78 1544.16 2254.65 1512.27C2159.3 1380.88 2044.43 1277.66 1923.25 1184.92C1819.92 1105.83 1707.17 1042.84 1607.53 956.569C1564.68 919.466 1533.16 882.257 1525.25 817.642C1518.34 761.126 1522.24 701.567 1527.87 645.182C1530.19 621.865 1561.94 497.386 1527.21 483.899C1492.5 470.415 1426 524.21 1405.43 540.188C1267.53 647.292 1142.32 801.399 1077.63 987.308C1042.68 1087.75 1027.61 1209.07 1053.79 1315.86C1059.87 1340.66 1070.12 1364.07 1082.2 1385.32C1098.28 1413.62 1168.45 1462.19 1140.31 1460.38C1121.23 1459.15 1103.88 1445.98 1086.44 1436.42C1019.53 1399.76 886.124 1319.77 827.205 1267.96C804.586 1248.06 781.215 1225.17 769.089 1194.5C754.471 1157.53 800.073 1129.79 811.207 1113.06C898.322 982.195 632.316 1008.51 608.453 1011.26C471.794 1027.03 336.422 1059.25 204.903 1107.47C162.482 1123.03 -15.1164 1170.38 -22.3383 1257.58C-26.6501 1309.64 31.4801 1341.25 60.5918 1352.99C148.591 1388.47 247.106 1384.14 338.114 1378.14C507.862 1366.94 734.83 1356.03 878.139 1224.84C926.867 1180.23 839.307 1192.25 832.429 1193.3C770.607 1202.75 711.27 1228.91 657.427 1267.16C540.375 1350.31 388.342 1517.37 475.895 1699.11C588.398 1932.64 871.503 1902.52 1055.1 1880.35C1249.21 1856.91 1449.9 1814.89 1629.41 1717.47C1680.57 1689.7 1785.82 1625.59 1792.33 1537.03C1797.51 1466.51 1722.62 1424.09 1681.97 1405.68C1606.83 1371.66 1525.63 1362.78 1446.24 1358.98C1383.47 1355.97 1182.18 1355.47 1293.44 1491.52C1384.02 1602.27 1516.24 1675.82 1631.04 1737.43C1791.2 1823.4 1958.51 1890.7 2129.93 1933.45C2212.4 1954.01 2295.33 1965.49 2379.37 1968.18C2389.58 1968.5 2417.22 1971.49 2409.73 1962.99C2392.48 1943.39 2350.59 1933.5 2331.7 1927.46C2250.38 1901.42 2167.55 1882.24 2085.52 1859.99C1690.61 1752.85 1302.22 1605.03 976.74 1299.89C788.226 1123.16 635.151 855.344 535.97 593.284C492.183 477.585 453.944 353.981 435.736 228.003C428.806 180.055 419.515 98.3151 441.286 51.151C462.962 4.19487 519.278 17.6742 551.642 28.3958C655.738 62.8805 755.667 136.925 844.836 208.441C967.229 306.605 1080.47 418.88 1168.39 563.343C1255.34 706.192 1331.25 895.116 1314.99 1078.73C1302.96 1214.61 1236.97 1326.11 1168.72 1429.24C1099.32 1534.1 1020.01 1629.01 942.785 1725.06C941.678 1726.43 896.606 1771.18 929.725 1762.18C1017.95 1738.21 1107.36 1699.73 1191.9 1662.78C1318.03 1607.65 1443.5 1546.31 1559.86 1464.37C1613.98 1426.26 1675.91 1378.46 1705.48 1307.88C1753.88 1192.33 1675.66 1114.8 1592.51 1066.75C1362.42 933.786 1096.18 918.139 851.039 857.564C541.031 780.959 257.971 659.615 -32.7861 511.046C-76.0888 488.919 -117.879 461.666 -162.732 444.776C-220.799 422.91 -213.249 441.838 -229.663 494.279C-303.861 731.328 -369.426 992.233 -357.65 1248.79C-351.513 1382.51 -323.805 1550.52 -246.968 1654.39C-137.741 1802.05 68.7023 1837.08 216.331 1863.18C461.214 1906.48 699.856 1904.39 940.826 1830.85C1028.68 1804.04 1204.15 1726.01 1290.83 1676.75C1334.66 1651.84 1426.17 1591.22 1462.57 1539.42C1644.08 1281.13 1118.42 1147.71 1017.23 1127.43C777.101 1079.3 528.842 1081.64 286.527 1080.33C83.3679 1079.22 -123.961 1074.88 -326.633 1100.29C-363.095 1104.86 -469.451 1117.42 -434.05 1129.03C-362.732 1152.42 -211.596 1112.76 -150.978 1103.48C141.309 1058.73 432.99 1003.42 724.032 948.185C1105.1 875.862 1496.11 811.615 1864.81 667.937C1899.44 654.444 1934.26 640.509 1966.68 620.43C2000.92 599.223 1996.36 578.916 1960.8 571.726C1812.12 541.661 1636.63 571.012 1490.32 590.888C1240.74 624.795 994.265 682.118 750.805 756.962C638.203 791.577 509.193 826.929 404.066 892.694C368.119 915.182 372.289 931.093 411.249 935.81C519.184 948.876 633.61 942.006 741.337 936.608C901.095 928.602 1062.64 913.643 1217.69 862.354C1236.1 856.266 1468.34 780.699 1380.29 695.483C1299.15 616.954 1158.09 599.842 1062.61 580.509C910.554 549.722 757.051 531.622 605.188 499.069C503.859 477.349 402.501 451.354 304.158 414.037C267.068 399.962 223.766 384.163 191.19 356.151C173.096 340.591 188.56 325.965 204.25 329.802C218.993 333.408 224.827 355.219 229.064 369.724C243.601 419.493 228.669 410.631 284.568 453.16C378.573 524.678 512.322 590.241 612.37 632.008C670.573 656.305 729.037 683.017 789.984 693.087C892.726 710.064 848.868 640.106 815.451 587.695C745.115 477.378 655.385 384.259 583.312 274.711C544.126 215.149 506.526 152.027 476.548 84.6849C461.951 51.8931 472.744 60.4556 492.22 77.0999C698.567 253.442 893.126 452.855 1088.08 647.178C1238.08 796.697 1385.24 950.183 1533.74 1101.88C1643.68 1214.18 1754.3 1330.46 1876.56 1422.85C1881.6 1426.66 1934.22 1463.33 1896.15 1420.46C1834.79 1351.35 1758.65 1297.53 1688.5 1244C1518.96 1114.63 1313.99 1005.07 1190.27 804.867C1166.93 767.098 1085.35 636.435 1121.7 578.912C1156.84 523.308 1269.73 489.585 1301.6 562.943C1319.14 603.298 1331.02 707.168 1373.76 720.234C1450.04 743.551 1529.69 567.072 1549.09 505.057C1615.45 292.921 1433.23 143.718 1286.26 91.4716C1141.72 40.0902 978.588 55.8182 831.776 75.9022C706.568 93.0308 518.623 133.251 395.577 174.109C329.94 195.904 211.517 243.148 152.011 301.857C84.3372 368.625 63.3484 481.516 99.4449 577.315C167.244 757.253 348.272 841.383 492.22 889.501C777.255 984.779 1083.46 998.032 1376.37 972.936C1674.91 947.359 1969.3 875.413 2252.69 757.76C2342.55 720.452 2493.21 660.891 2567.1 571.726C2571.78 566.083 2582.42 551.338 2575.92 550.169C2547.31 545.025 2518.05 552.971 2489.4 557.754C2409.57 571.082 2329.96 586.58 2250.73 604.462C2108.23 636.622 1966 670.66 1824.32 707.858C1764.38 723.599 1115.36 877.592 1000.9 995.692C971.487 1026.04 1024.4 1101.59 1060.98 1116.25C1248.53 1191.44 1807.71 1215.47 1985.61 1238.41C2051.85 1246.95 2180.46 1200.92 2182.16 1282.33C2183.92 1365.79 2054.44 1342.55 1988.23 1362.97C1830.15 1411.71 1669.52 1447.08 1510.24 1489.52C1025.59 1618.66 539.12 1742.85 57.9799 1890.73C-306.305 2002.69 -684.327 2112.79 -1031.86 2291.54C-1066.26 2309.23 -1101.72 2327.78 -1129.81 2357.81C-1146.45 2375.59 -1092.47 2394.8 -1070.39 2393.74C-1022.86 2391.46 -975.634 2383.15 -928.366 2376.57C-687.863 2343.14 -447.854 2304.58 -207.462 2269.98C249.322 2204.25 706.49 2139.89 1164.8 2091.93C1252 2082.81 1339.31 2075.16 1426.65 2068.38C1483.41 2063.98 1540.21 2057.32 1597.08 2058.4C1617.49 2058.79 1644.6 2053.11 1657.16 2072.77C1684.99 2116.36 1401.35 2281.18 1366.58 2288.35C1229.98 2316.49 1414.27 1917 1431.88 1874.36C1498.12 1714 1566.22 1549.62 1614.71 1379.74C1645.03 1273.54 1666.12 1175.83 1605.25 1081.92C1494.48 911.067 1310.09 969.575 1167.09 1032.02C1092 1064.81 1015.31 1109.13 935.602 1123.44C838.174 1140.93 807.355 1057.25 780.843 955.77C724.905 741.658 702.484 510.202 702.484 285.889C702.484 263.016 704.134 265.193 709.34 283.494C722.264 328.925 734.484 374.644 747.54 420.025C818.386 666.279 903.397 904.118 985.229 1145C1017.39 1239.67 1050.92 1335.12 1074.69 1433.63C1083 1468.07 1115.55 1583.73 1081.87 1615.67C1049.3 1646.56 976.985 1575.49 959.11 1558.58C878.693 1482.51 810.347 1386.85 752.111 1285.52C707.345 1207.63 678.29 1132.51 671.793 1036.41C666.04 951.32 666.603 844.412 694.974 764.147C702.297 743.43 727.787 712.059 742.969 745.784C759.423 782.333 749.074 834.59 736.766 869.141C698.448 976.702 634.56 1073.76 579.068 1168.15C572.499 1179.33 468.36 1352.72 457.611 1372.55C441.089 1403.03 402.322 1475.79 401.454 1519.46C397.21 1732.98 912.034 1474.56 960.416 1450C1053.04 1402.97 1170.81 1343.96 1242.51 1251.99C1305.24 1171.51 1236.47 1131.54 1178.52 1090.7C1163.04 1079.8 1112.38 1060.7 1130.19 1062.36C2760.17 1214.37 -3143.24 840.612 1660.75 1162.96C2134.99 1194.78 2629.66 1161.89 3051.95 864.749C3097.31 832.832 3142.6 789.082 3164.59 731.013C3199.91 637.753 3013.91 629.078 2930.49 616.438C2645.24 573.214 2428.27 564.789 2132.86 570.129C1786.84 576.385 1498.7 597.6 1158.27 666.34C856.257 727.325 540.526 823.863 274.12 1017.25C238.313 1043.24 205.827 1076.52 176.825 1113.06C129.832 1172.26 131.443 1197.52 199.026 1225.24C248.182 1245.4 299.692 1257.24 351.173 1264.76C559.429 1295.2 841.268 1300.06 1043.35 1291.11C1358.16 1277.16 1698.79 1251.81 2003.9 1143C2040.84 1129.83 2078.67 1115.06 2110.34 1088.31C2136.35 1066.33 2153.5 999.703 2122.09 969.343C2093.93 942.126 2057.65 928.957 2022.83 918.244C1876.87 873.324 1681.48 864.886 1538.64 860.757C1222.45 851.618 888.043 855.932 576.456 932.616C413.212 972.791 283.632 1034.81 145.481 1148.99C67.2286 1213.67 -120.311 1417.8 -183.627 1514.67C-209.868 1554.81 -235.733 1599.62 -244.029 1650C-260.809 1751.91 -165.482 1818.87 -117.349 1863.18C78.7081 2043.7 300.444 2177.93 526.176 2293.14C816.211 2441.17 1113.49 2537.41 1417.51 2626.88C1496.35 2650.08 1396.25 2629.74 1393.68 2628.88C1281.88 2591.42 1170.12 2535.09 1066.85 2471.19C962.808 2406.8 883.977 2323.03 805.656 2218.48C716.978 2100.12 656.823 1997.07 644.367 1834.84C636.642 1734.22 628.508 1555.7 750.479 1609.28C907.165 1678.12 1058.43 1777.89 1205.29 1872.37C1336.97 1957.08 1462.14 2050.23 1585.98 2150.62C1612.1 2171.79 1637.78 2193.78 1664.34 2214.09C1684.6 2229.58 1715.7 2271.56 1730.29 2248.43C1748.63 2219.37 1664.14 2056.97 1661.73 2051.61C1594.92 1903.14 1535 1761.7 1491.3 1599.3C1427.83 1363.41 1363.16 1105.36 1358.41 854.769C1354.23 633.825 1488.4 504.695 1640.83 424.815C1678.32 405.174 1716.64 391.856 1755.76 378.507C1770.58 373.449 1800.74 369.164 1812.24 353.755C1825.71 335.719 1789.94 316.329 1783.84 314.632C1647.17 276.599 1479.69 292.695 1343.4 293.873C1106.59 295.921 881.872 311.893 653.509 396.072C538.787 438.361 301.128 551.519 191.843 618.035C132.491 654.159 14.0538 731.273 -24.9502 817.642C-71.4658 920.645 -4.14347 1047.14 51.1234 1115.46C174.551 1268.03 346.051 1362.7 508.545 1434.03C689.522 1513.47 879.702 1561.55 1070.12 1590.52C1110.63 1596.69 1250.68 1631.36 1299.97 1595.31C1303.81 1592.51 1303.08 1583.5 1300.62 1578.94C1280.11 1540.89 1216.3 1553.62 1196.15 1554.99C945.911 1572.03 686.743 1638.56 447.163 1725.45C361.021 1756.7 159.567 1813.88 145.807 1966.98C130.744 2134.58 332.213 2189.41 425.615 2210.9C620.516 2255.73 825.532 2252.23 1021.14 2215.69C1084.03 2203.94 1146.27 2186.56 1207.57 2165.79C1266.58 2145.79 1422.9 2117.17 1410.33 1979.75C1402.95 1899.17 1363.11 1826.8 1326.74 1758.99C1276.04 1664.44 1006.56 1281.35 948.009 1178.53C819.629 953.09 973.924 1043.92 1044.98 1116.25C1210.5 1284.77 1204.77 1604.85 1114.85 1822.06C1005.2 2086.93 698.452 2404.21 440.634 2258.01C359.491 2211.99 267.486 2121.79 236.247 2015.28C204.508 1907.08 221.007 1753.23 246.042 1646.41C304.711 1396.08 524.456 1218.93 736.439 1249.59C921.483 1276.36 1083.46 1407.6 1261.45 1464.37C1312.01 1480.5 1371.18 1493.73 1418.16 1456.38C1502.07 1389.7 1367.02 1232.69 1333.93 1190.91C1174.89 990.102 967.789 851.882 741.663 808.061C683.383 796.767 612.484 782.417 552.948 796.883C548.407 797.986 542.649 800.041 540.868 805.266C535.364 821.418 565.115 825.336 579.068 829.219C675.834 856.147 783.871 856.771 882.056 851.974C1065.29 843.023 1242.85 805.755 1414.57 725.024C1570.76 651.599 1735.29 547.513 1866.12 417.63C1889.37 394.546 1936.1 349.213 1879.83 325.81C1827.3 303.962 1664.8 298.198 1625.82 298.664C1463.61 300.602 1295.57 319.932 1138.36 370.921C1091.65 386.071 1045.48 404.016 1000.25 424.815C946.992 449.306 711.772 574.65 669.181 609.252C623.052 646.728 574.421 687.926 546.745 746.582C471.807 905.403 526.365 1053.07 597.025 1196.1C746.327 1498.3 982.127 1664.43 1251 1766.97C1497.46 1860.97 1764.32 1904.28 2019.57 1945.82C2093.04 1957.78 2211.41 1987.1 2293.17 1980.95C2328.03 1978.33 2224.54 1963.52 2189.67 1960.99C1866.17 1937.49 1540.68 1940.23 1216.72 1940.23C1184.61 1940.23 1152.49 1939.98 1120.4 1941.03C1109.68 1941.38 1081.19 1940.91 1089.06 1949.81C1111.56 1975.27 1192.54 1980.95 1215.41 1984.94C1279.6 1996.16 1343.61 2001.85 1408.37 2004.11C1423.16 2004.62 1462.83 2000.81 1452.12 2013.29C1420.56 2050.03 1359.63 2079.19 1319.24 2098.72C1285.99 2114.79 1284.23 2077.98 1278.42 2047.22" stroke="white" stroke-width="2" stroke-linecap="round"/>
</g>
<defs>
<clipPath id="clip0_158:455">
<rect width="1920" height="1826" fill="white"/>
</clipPath>
</defs>
</svg>
