<svg width="127" height="46" viewBox="0 0 127 46" fill="none" xmlns="http://www.w3.org/2000/svg">
<g id="Downarrow">
<path id="Work" d="M6.8475 36L0.5475 10.8H4.6875L9.5475 30.6H10.2675L15.4875 10.8H20.1675L25.3875 30.6H26.1075L30.9675 10.8H35.1075L28.8075 36H23.0475L18.1875 17.1H17.4675L12.6075 36H6.8475ZM41.3333 31.464C42.3653 32.568 43.6613 33.12 45.2213 33.12C46.7813 33.12 48.0653 32.568 49.0733 31.464C50.1053 30.336 50.6213 28.848 50.6213 27C50.6213 25.152 50.1053 23.676 49.0733 22.572C48.0653 21.444 46.7813 20.88 45.2213 20.88C43.6613 20.88 42.3653 21.444 41.3333 22.572C40.3253 23.676 39.8213 25.152 39.8213 27C39.8213 28.848 40.3253 30.336 41.3333 31.464ZM51.6653 33.768C49.9853 35.496 47.8373 36.36 45.2213 36.36C42.6053 36.36 40.4453 35.496 38.7413 33.768C37.0613 32.04 36.2213 29.784 36.2213 27C36.2213 24.216 37.0613 21.96 38.7413 20.232C40.4453 18.504 42.6053 17.64 45.2213 17.64C47.8373 17.64 49.9853 18.504 51.6653 20.232C53.3693 21.96 54.2213 24.216 54.2213 27C54.2213 29.784 53.3693 32.04 51.6653 33.768ZM58.0041 36V18H61.0641L61.4241 19.62H61.6041C61.6281 19.596 61.7001 19.512 61.8201 19.368C61.9641 19.224 62.0481 19.128 62.0721 19.08C62.1201 19.032 62.2161 18.948 62.3601 18.828C62.5041 18.684 62.6241 18.588 62.7201 18.54C62.8161 18.492 62.9481 18.432 63.1161 18.36C63.2841 18.264 63.4521 18.204 63.6201 18.18C63.8121 18.132 64.0281 18.096 64.2681 18.072C64.5081 18.024 64.7601 18 65.0241 18H68.2641V21.24H65.3841C62.8641 21.24 61.6041 22.488 61.6041 24.984V36H58.0041ZM71.1567 36V10.8H74.7567V26.28L82.3167 18H86.6367L78.5367 26.82L86.9967 36H82.6767L74.7567 27.36V36H71.1567Z" fill="url(#paint0_linear)"/>
<path id="downarr" d="M99.6425 17L111.5 28.7436L123.358 17L127 20.6154L111.5 36L96 20.6154L99.6425 17Z" fill="url(#paint1_linear)"/>
</g>
<defs>
<linearGradient id="paint0_linear" x1="43.5" y1="0" x2="43.5" y2="46" gradientUnits="userSpaceOnUse">
<stop offset="0.265217" stop-color="#CCF1CE"/>
<stop offset="1" stop-color="#F1F9F4"/>
</linearGradient>
<linearGradient id="paint1_linear" x1="111.5" y1="17" x2="111.5" y2="36" gradientUnits="userSpaceOnUse">
<stop offset="0.265217" stop-color="#CCF1CE"/>
<stop offset="1" stop-color="#F1F9F4"/>
</linearGradient>
</defs>
</svg>
