<svg width="50" height="48" viewBox="0 0 50 48" fill="none" xmlns="http://www.w3.org/2000/svg">
<g clip-path="url(#clip0_36:4)" filter="url(#filter0_d_36:4)">
<g opacity="0.4" filter="url(#filter1_f_36:4)">
<path d="M32.0889 38C35.6752 38 38.7389 36.4794 41.2747 33.7726C43.8106 31.0659 45.2352 27.3947 45.2352 23.5668C45.2352 19.7389 43.8106 16.0678 41.2747 13.361C38.7389 10.6543 35.1744 9 31.5881 9L31.7133 15.3663C33.7509 15.3663 35.705 16.2303 37.1458 17.7682C38.5866 19.3061 39.396 21.3919 39.396 23.5668C39.396 25.7417 38.5866 27.8275 37.1458 29.3654C35.705 30.9033 34.0013 31.7189 31.9637 31.7189L32.0889 38Z" fill="#69DF69"/>
<path d="M6 31.9162L20.6027 15.3137H6.43887V9H29.4418V15.0838L14.8391 31.6881H29.8824V38H6V31.9162Z" fill="white"/>
</g>
<path d="M32.0889 38C35.6752 38 38.7389 36.4794 41.2747 33.7726C43.8106 31.0659 45.2352 27.3947 45.2352 23.5668C45.2352 19.7389 43.8106 16.0678 41.2747 13.361C38.7389 10.6543 35.1744 9 31.5881 9L31.7133 15.3663C33.7509 15.3663 35.705 16.2303 37.1458 17.7682C38.5866 19.3061 39.396 21.3919 39.396 23.5668C39.396 25.7417 38.5866 27.8275 37.1458 29.3654C35.705 30.9033 34.0013 31.7189 31.9637 31.7189L32.0889 38Z" fill="#69DF69"/>
<path d="M6 31.9162L20.6027 15.3137H6.43887V9H29.4418V15.0838L14.8391 31.6881H29.8824V38H6V31.9162Z" fill="white"/>
</g>
<defs>
<filter id="filter0_d_36:4" x="-4" y="0" width="56" height="56" filterUnits="userSpaceOnUse" color-interpolation-filters="sRGB">
<feFlood flood-opacity="0" result="BackgroundImageFix"/>
<feColorMatrix in="SourceAlpha" type="matrix" values="0 0 0 0 0 0 0 0 0 0 0 0 0 0 0 0 0 0 127 0" result="hardAlpha"/>
<feOffset dy="4"/>
<feGaussianBlur stdDeviation="2"/>
<feComposite in2="hardAlpha" operator="out"/>
<feColorMatrix type="matrix" values="0 0 0 0 0 0 0 0 0 0 0 0 0 0 0 0 0 0 0.25 0"/>
<feBlend mode="normal" in2="BackgroundImageFix" result="effect1_dropShadow_36:4"/>
<feBlend mode="normal" in="SourceGraphic" in2="effect1_dropShadow_36:4" result="shape"/>
</filter>
<filter id="filter1_f_36:4" x="1" y="4" width="49.2351" height="39" filterUnits="userSpaceOnUse" color-interpolation-filters="sRGB">
<feFlood flood-opacity="0" result="BackgroundImageFix"/>
<feBlend mode="normal" in="SourceGraphic" in2="BackgroundImageFix" result="shape"/>
<feGaussianBlur stdDeviation="2.5" result="effect1_foregroundBlur_36:4"/>
</filter>
<clipPath id="clip0_36:4">
<rect width="48" height="48" fill="white"/>
</clipPath>
</defs>
</svg>
