<svg width="35" height="35" viewBox="0 0 35 35" fill="none" xmlns="http://www.w3.org/2000/svg">
<path d="M17.2156 0C7.70973 0 0 7.90316 0 17.6508C0 25.4496 4.93228 32.0657 11.7741 34.4C12.6334 34.5633 12.9117 34.0161 12.9117 33.5513V30.2653C8.12291 31.3332 7.12583 28.1825 7.12583 28.1825C6.34252 26.1424 5.21347 25.5996 5.21347 25.5996C3.65115 24.5038 5.33254 24.5273 5.33254 24.5273C7.06128 24.6509 7.97084 26.3468 7.97084 26.3468C9.5059 29.0445 11.9979 28.2649 12.9806 27.8133C13.1341 26.6734 13.5803 25.8938 14.0738 25.454C10.2505 25.0054 6.23062 23.4918 6.23062 16.7301C6.23062 14.8017 6.90347 13.2278 8.00383 11.9923C7.82594 11.5466 7.2363 9.75062 8.17168 7.32069C8.17168 7.32069 9.6178 6.84706 12.9074 9.1299C14.2804 8.73864 15.7523 8.54301 17.2156 8.53565C18.679 8.54301 20.1523 8.73864 21.5281 9.1299C24.8149 6.84706 26.2581 7.32069 26.2581 7.32069C27.195 9.75209 26.6053 11.5481 26.4274 11.9923C27.5321 13.2278 28.1992 14.8032 28.1992 16.7301C28.1992 23.5095 24.1722 25.0024 20.3388 25.4393C20.9557 25.9865 21.5195 27.0602 21.5195 28.7076V33.5513C21.5195 34.0205 21.795 34.5721 22.6687 34.3985C29.5047 32.0613 34.4313 25.4466 34.4313 17.6508C34.4313 7.90316 26.723 0 17.2156 0Z" fill="white"/>
</svg>
