<svg width="32" height="29" viewBox="0 0 32 29" fill="none" xmlns="http://www.w3.org/2000/svg">
<g id="Group 19">
<path id="github" d="M15.6465 7.00006C11.7813 7.00006 8.64647 10.2135 8.64647 14.177C8.64647 17.348 10.652 20.0382 13.4339 20.9874C13.7833 21.0537 13.8965 20.8313 13.8965 20.6423V19.3062C11.9493 19.7404 11.5439 18.4593 11.5439 18.4593C11.2254 17.6297 10.7663 17.409 10.7663 17.409C10.1311 16.9635 10.8147 16.973 10.8147 16.973C11.5176 17.0233 11.8875 17.7129 11.8875 17.7129C12.5116 18.8098 13.5249 18.4928 13.9245 18.3092C13.9869 17.8456 14.1683 17.5287 14.369 17.3498C12.8144 17.1674 11.1799 16.552 11.1799 13.8026C11.1799 13.0185 11.4535 12.3786 11.9009 11.8762C11.8286 11.695 11.5888 10.9647 11.9691 9.97671C11.9691 9.97671 12.5571 9.78412 13.8947 10.7123C14.453 10.5533 15.0515 10.4737 15.6465 10.4707C16.2415 10.4737 16.8406 10.5533 17.4 10.7123C18.7364 9.78412 19.3232 9.97671 19.3232 9.97671C19.7041 10.9653 19.4644 11.6956 19.3921 11.8762C19.8412 12.3786 20.1125 13.0191 20.1125 13.8026C20.1125 16.5592 18.4751 17.1662 16.9164 17.3439C17.1672 17.5663 17.3965 18.0029 17.3965 18.6728V20.6423C17.3965 20.8331 17.5085 21.0573 17.8637 20.9868C20.6433 20.0364 22.6465 17.3468 22.6465 14.177C22.6465 10.2135 19.5122 7.00006 15.6465 7.00006Z" fill="white"/>
<path id="Vector 18" d="M25.4322 17.6838C25.9944 17.0549 26.5058 16.4944 26.7559 15.6698C27.0425 14.7249 27.0561 13.67 27.0179 12.6953C26.9752 11.6073 26.8004 10.5247 26.5686 9.46352C26.3708 8.55817 26.1386 7.60243 25.6374 6.80729C24.457 4.93497 22.0559 4.24661 19.9799 3.95411C18.5198 3.74837 17.0315 3.73233 15.5683 3.94011C13.5705 4.2238 11.6918 4.97156 9.99907 6.06536C9.4754 6.40374 8.95482 6.75107 8.47228 7.14559C7.52663 7.91873 6.05246 9.37252 5.38669 10.3794C4.94364 11.0494 4.5554 11.7678 4.29908 12.5274C3.67914 14.3643 3.70571 15.6912 4.22358 17.5502C4.85666 19.8228 6.28179 21.7573 8.27772 23.0249C8.86166 23.3958 9.50346 23.6738 10.1465 23.9314C11.6825 24.5467 12.8179 24.8126 14.4896 24.8844C17.0452 24.9942 19.112 24.6817 21.6569 23.0789C23.158 22.1335 22.9701 22.455 25.288 20.2389C26.0486 19.5117 26.4099 19.0416 27.1139 18.2601C27.6624 17.6513 28.487 16.6607 28.8784 15.8293C28.9499 15.6773 28.9693 15.414 28.8927 15.2534" stroke="#73D48A" stroke-width="0.5" stroke-linecap="round"/>
</g>
</svg>
