<svg width="35" height="35" viewBox="0 0 35 35" fill="none" xmlns="http://www.w3.org/2000/svg">
<path d="M17.2156 3.10312C21.8122 3.10312 22.3574 3.12033 24.1736 3.20354C28.839 3.41587 31.0183 5.62951 31.2306 10.2605C31.3138 12.0753 31.3296 12.6205 31.3296 17.2171C31.3296 21.8151 31.3124 22.3588 31.2306 24.1736C31.0168 28.8003 28.8433 31.0183 24.1736 31.2306C22.3574 31.3138 21.8151 31.331 17.2156 31.331C12.6191 31.331 12.0739 31.3138 10.2591 31.2306C5.58217 31.0168 3.41443 28.7931 3.20211 24.1722C3.1189 22.3574 3.10168 21.8136 3.10168 17.2156C3.10168 12.6191 3.12033 12.0753 3.20211 10.2591C3.41587 5.62951 5.58934 3.41443 10.2591 3.20211C12.0753 3.12033 12.6191 3.10312 17.2156 3.10312ZM17.2156 0C12.5401 0 11.9548 0.0200849 10.1185 0.103294C3.86634 0.390221 0.391655 3.85917 0.104728 10.1171C0.0200849 11.9548 0 12.5401 0 17.2156C0 21.8911 0.0200849 22.4779 0.103294 24.3142C0.390221 30.5663 3.85917 34.041 10.1171 34.328C11.9548 34.4112 12.5401 34.4313 17.2156 34.4313C21.8911 34.4313 22.4779 34.4112 24.3142 34.328C30.5606 34.041 34.0439 30.5721 34.3265 24.3142C34.4112 22.4779 34.4313 21.8911 34.4313 17.2156C34.4313 12.5401 34.4112 11.9548 34.328 10.1185C34.0468 3.87208 30.5735 0.391655 24.3156 0.104728C22.4779 0.0200849 21.8911 0 17.2156 0ZM17.2156 8.3754C12.3336 8.3754 8.3754 12.3336 8.3754 17.2156C8.3754 22.0977 12.3336 26.0573 17.2156 26.0573C22.0977 26.0573 26.0559 22.0991 26.0559 17.2156C26.0559 12.3336 22.0977 8.3754 17.2156 8.3754ZM17.2156 22.9542C14.0465 22.9542 11.4771 20.3862 11.4771 17.2156C11.4771 14.0465 14.0465 11.4771 17.2156 11.4771C20.3847 11.4771 22.9542 14.0465 22.9542 17.2156C22.9542 20.3862 20.3847 22.9542 17.2156 22.9542ZM26.4059 5.96091C25.2639 5.96091 24.3386 6.88625 24.3386 8.02679C24.3386 9.16732 25.2639 10.0927 26.4059 10.0927C27.5464 10.0927 28.4703 9.16732 28.4703 8.02679C28.4703 6.88625 27.5464 5.96091 26.4059 5.96091Z" fill="white"/>
</svg>
