<svg width="31" height="29" viewBox="0 0 31 29" fill="none" xmlns="http://www.w3.org/2000/svg">
<g id="Group 20">
<path id="instagram" d="M15.2929 8.26181C17.1619 8.26181 17.3836 8.26881 18.1221 8.30264C20.0191 8.38898 20.9052 9.28906 20.9915 11.1721C21.0254 11.91 21.0318 12.1316 21.0318 14.0006C21.0318 15.8702 21.0248 16.0913 20.9915 16.8292C20.9046 18.7105 20.0209 19.6123 18.1221 19.6986C17.3836 19.7325 17.1631 19.7395 15.2929 19.7395C13.4239 19.7395 13.2023 19.7325 12.4644 19.6986C10.5627 19.6117 9.68128 18.7076 9.59495 16.8286C9.56112 16.0907 9.55412 15.8696 9.55412 14.0001C9.55412 12.1311 9.5617 11.91 9.59495 11.1715C9.68187 9.28906 10.5656 8.38839 12.4644 8.30206C13.2029 8.26881 13.4239 8.26181 15.2929 8.26181ZM15.2929 7.00006C13.3919 7.00006 13.1539 7.00823 12.4072 7.04206C9.86503 7.15873 8.4522 8.56923 8.33553 11.1137C8.30112 11.861 8.29295 12.099 8.29295 14.0001C8.29295 15.9011 8.30112 16.1397 8.33495 16.8864C8.45162 19.4286 9.86212 20.8414 12.4066 20.9581C13.1539 20.9919 13.3919 21.0001 15.2929 21.0001C17.194 21.0001 17.4326 20.9919 18.1793 20.9581C20.7191 20.8414 22.1354 19.4309 22.2504 16.8864C22.2848 16.1397 22.2929 15.9011 22.2929 14.0001C22.2929 12.099 22.2848 11.861 22.2509 11.1143C22.1366 8.57448 20.7244 7.15931 18.1799 7.04264C17.4326 7.00823 17.194 7.00006 15.2929 7.00006V7.00006ZM15.2929 10.4056C13.3079 10.4056 11.6984 12.015 11.6984 14.0001C11.6984 15.9851 13.3079 17.5951 15.2929 17.5951C17.278 17.5951 18.8874 15.9857 18.8874 14.0001C18.8874 12.015 17.278 10.4056 15.2929 10.4056ZM15.2929 16.3334C14.0044 16.3334 12.9596 15.2892 12.9596 14.0001C12.9596 12.7115 14.0044 11.6667 15.2929 11.6667C16.5815 11.6667 17.6263 12.7115 17.6263 14.0001C17.6263 15.2892 16.5815 16.3334 15.2929 16.3334ZM19.0298 9.42381C18.5654 9.42381 18.1892 9.80006 18.1892 10.2638C18.1892 10.7276 18.5654 11.1038 19.0298 11.1038C19.4935 11.1038 19.8692 10.7276 19.8692 10.2638C19.8692 9.80006 19.4935 9.42381 19.0298 9.42381Z" fill="white"/>
<path id="Vector 19" d="M25.0787 17.6838C25.6409 17.0549 26.1522 16.4944 26.4023 15.6698C26.689 14.7249 26.7025 13.67 26.6644 12.6953C26.6217 11.6073 26.4469 10.5247 26.2151 9.46352C26.0173 8.55817 25.7851 7.60244 25.2838 6.80729C24.1035 4.93497 21.7023 4.24661 19.6264 3.95411C18.1663 3.74837 16.678 3.73233 15.2148 3.94011C13.217 4.2238 11.3383 4.97156 9.64555 6.06536C9.12187 6.40374 8.6013 6.75107 8.11876 7.14559C7.17311 7.91873 5.69894 9.37251 5.03316 10.3794C4.59011 11.0494 4.20188 11.7678 3.94555 12.5274C3.32562 14.3643 3.35219 15.6911 3.87005 17.5502C4.50313 19.8228 5.92827 21.7573 7.9242 23.0249C8.50814 23.3958 9.14994 23.6738 9.79301 23.9314C11.329 24.5467 12.4644 24.8126 14.1361 24.8844C16.6916 24.9942 18.7585 24.6817 21.3034 23.0789C22.8045 22.1335 22.6166 22.455 24.9345 20.2389C25.6951 19.5117 26.0563 19.0416 26.7604 18.2601C27.3089 17.6513 28.1335 16.6607 28.5249 15.8293C28.5964 15.6773 28.6157 15.414 28.5392 15.2534" stroke="#73D48A" stroke-width="0.5" stroke-linecap="round"/>
</g>
</svg>
