<svg width="32" height="29" viewBox="0 0 32 29" fill="none" xmlns="http://www.w3.org/2000/svg">
<g id="Group 21">
<path id="linkedin" d="M11.8444 8.5218C11.8444 9.36241 11.1969 10.0435 10.3978 10.0435C9.5986 10.0435 8.9511 9.36241 8.9511 8.5218C8.9511 7.6818 9.5986 7.00006 10.3978 7.00006C11.1969 7.00006 11.8444 7.6818 11.8444 8.5218ZM11.8561 11.2609H8.93943V21.0001H11.8561V11.2609ZM16.5123 11.2609H13.6143V21.0001H16.5129V15.8876C16.5129 13.045 20.0298 12.8125 20.0298 15.8876V21.0001H22.9394V14.8334C22.9394 10.0368 17.7349 10.2115 16.5123 12.5727V11.2609Z" fill="white"/>
<path id="Vector 20" d="M25.7252 17.6838C26.2874 17.0549 26.7987 16.4944 27.0488 15.6698C27.3355 14.7249 27.349 13.67 27.3108 12.6953C27.2682 11.6073 27.0934 10.5247 26.8616 9.46352C26.6638 8.55817 26.4316 7.60244 25.9303 6.80729C24.75 4.93497 22.3488 4.24661 20.2729 3.95411C18.8128 3.74837 17.3245 3.73233 15.8613 3.94011C13.8635 4.2238 11.9848 4.97156 10.292 6.06536C9.76836 6.40374 9.24779 6.75107 8.76525 7.14559C7.8196 7.91873 6.34543 9.37251 5.67965 10.3794C5.2366 11.0494 4.84837 11.7678 4.59204 12.5274C3.97211 14.3643 3.99868 15.6911 4.51654 17.5502C5.14962 19.8228 6.57476 21.7573 8.57069 23.0249C9.15462 23.3958 9.79643 23.6738 10.4395 23.9314C11.9755 24.5467 13.1109 24.8126 14.7826 24.8844C17.3381 24.9942 19.4049 24.6817 21.9499 23.0789C23.451 22.1335 23.263 22.455 25.5809 20.2389C26.3416 19.5117 26.7028 19.0416 27.4069 18.2601C27.9554 17.6513 28.7799 16.6607 29.1713 15.8293C29.2429 15.6773 29.2622 15.414 29.1856 15.2534" stroke="#73D48A" stroke-width="0.5" stroke-linecap="round"/>
</g>
</svg>
