<svg width="31" height="29" viewBox="0 0 31 29" fill="none" xmlns="http://www.w3.org/2000/svg">
<g id="Twi">
<path id="Vector" d="M23 10.4207C22.4849 10.6619 21.9313 10.8243 21.3503 10.8975C21.9436 10.5228 22.3992 9.9291 22.6132 9.22155C22.0585 9.56856 21.4437 9.82082 20.7892 9.95679C20.2659 9.36799 19.5187 9.00006 18.6927 9.00006C16.8382 9.00006 15.4756 10.8249 15.8944 12.7193C13.508 12.5932 11.3917 11.3873 9.97475 9.55441C9.22225 10.916 9.5845 12.6971 10.8632 13.5991C10.393 13.5831 9.94967 13.4471 9.56292 13.2201C9.53142 14.6235 10.4852 15.9365 11.8665 16.2287C11.4622 16.3444 11.0195 16.3715 10.5692 16.2804C10.9343 17.4839 11.9948 18.3594 13.2525 18.384C12.045 19.3825 10.5237 19.8286 9 19.6391C10.2711 20.4986 11.7813 21.0001 13.403 21.0001C18.7358 21.0001 21.7487 16.2497 21.5667 11.989C22.1279 11.5614 22.615 11.028 23 10.4207Z" fill="white"/>
<path id="Vector 17" d="M24.7857 17.6838C25.3479 17.0549 25.8593 16.4944 26.1094 15.6698C26.396 14.7249 26.4096 13.67 26.3714 12.6953C26.3288 11.6073 26.1539 10.5247 25.9221 9.46352C25.7243 8.55817 25.4922 7.60243 24.9909 6.80729C23.8105 4.93497 21.4094 4.24661 19.3334 3.95411C17.8733 3.74837 16.385 3.73233 14.9218 3.94011C12.924 4.2238 11.0453 4.97156 9.35259 6.06536C8.82891 6.40374 8.30834 6.75107 7.8258 7.14559C6.88015 7.91873 5.40598 9.37252 4.7402 10.3794C4.29715 11.0494 3.90892 11.7678 3.65259 12.5274C3.03266 14.3643 3.05923 15.6912 3.57709 17.5502C4.21017 19.8228 5.63531 21.7573 7.63124 23.0249C8.21517 23.3958 8.85698 23.6738 9.50004 23.9314C11.036 24.5467 12.1714 24.8126 13.8432 24.8844C16.3987 24.9942 18.4655 24.6817 21.0104 23.0789C22.5115 22.1335 22.3236 22.455 24.6415 20.2389C25.4021 19.5117 25.7634 19.0416 26.4675 18.2601C27.0159 17.6513 27.8405 16.6607 28.2319 15.8293C28.3035 15.6773 28.3228 15.414 28.2462 15.2534" stroke="#73D48A" stroke-width="0.5" stroke-linecap="round"/>
</g>
</svg>
