<svg width="35" height="30" viewBox="0 0 35 30" fill="none" xmlns="http://www.w3.org/2000/svg">
<path d="M34.4313 3.49387C33.1645 4.08702 31.803 4.48649 30.3741 4.66656C31.8331 3.74505 32.9536 2.28486 33.4801 0.544735C32.1157 1.39815 30.6036 2.01854 28.994 2.35295C27.7071 0.904865 25.8693 0 23.8379 0C19.2772 0 15.9259 4.48801 16.956 9.147C11.0869 8.8368 5.88201 5.87103 2.39728 1.36335C0.546596 4.71195 1.4375 9.09252 4.58223 11.3108C3.42591 11.2715 2.33559 10.9371 1.38442 10.3787C1.30695 13.8302 3.65258 17.0593 7.0498 17.778C6.0556 18.0625 4.96671 18.1291 3.85917 17.9051C4.75725 20.8648 7.36542 23.0181 10.4585 23.0786C7.4888 25.5344 3.74727 26.6315 0 26.1654C3.12607 28.2793 6.84034 29.5125 10.8286 29.5125C23.9441 29.5125 31.354 17.8295 30.9064 7.35089C32.2865 6.29925 33.4844 4.98735 34.4313 3.49387Z" fill="white"/>
</svg>
